HIERARCHY
ROOT Hips
{
	OFFSET 0.000000 8.830580 0.000000
	CHANNELS 6 Xposition Yposition Zposition Zrotation Yrotation Xrotation 
	JOINT Spine
	{
		OFFSET 0.000000 0.010000 0.000000
		CHANNELS 3 Zrotation Yrotation Xrotation
		JOINT Spine1
		{
			OFFSET 0.000000 2.459130 0.000000
			CHANNELS 3 Zrotation Yrotation Xrotation
			JOINT Neck
			{
				OFFSET 0.000000 2.484630 0.000000
				CHANNELS 3 Zrotation Yrotation Xrotation
				JOINT Head_virtual
				{
					OFFSET 0.000000 0.000000 0.000000
					CHANNELS 3 Zrotation Yrotation Xrotation
					JOINT Head
					{
						OFFSET 0.000000 0.927525 0.000000
						CHANNELS 3 Zrotation Yrotation Xrotation
						End Site
						{
							OFFSET 0.000000 0.000000 0.000000
						}
					}
				}
				JOINT LeftUpArm_virtual
				{
					OFFSET 0.000000 0.000000 0.000000
					CHANNELS 3 Zrotation Yrotation Xrotation
					JOINT LeftUpArm
					{
						OFFSET 1.248820 0.000000 0.000000
						CHANNELS 3 Zrotation Yrotation Xrotation
						JOINT LeftForeArm
						{
							OFFSET 2.597580 0.000000 0.000000
							CHANNELS 3 Zrotation Yrotation Xrotation
							JOINT LeftHand
							{
								OFFSET 2.455420 0.000000 0.000000
								CHANNELS 3 Zrotation Yrotation Xrotation
								End Site
								{
									OFFSET 0.000000 0.000000 0.000000
								}
							}
						}
					}
				}
				JOINT RightUpArm_virtual
				{
					OFFSET -0.000000 -0.000000 -0.000000
					CHANNELS 3 Zrotation Yrotation Xrotation
					JOINT RightUpArm
					{
						OFFSET -1.248820 -0.000000 -0.000000
						CHANNELS 3 Zrotation Yrotation Xrotation
						JOINT RightForeArm
						{
							OFFSET -2.597580 -0.000000 -0.000000
							CHANNELS 3 Zrotation Yrotation Xrotation
							JOINT RightHand
							{
								OFFSET -2.455420 -0.000000 -0.000000
								CHANNELS 3 Zrotation Yrotation Xrotation
								End Site
								{
									OFFSET 0.000000 0.000000 0.000000
								}
							}
						}
					}
				}
			}
		}
	}
	JOINT LeftUpLeg
	{
		OFFSET 1.271939 0.000000 0.000000
		CHANNELS 3 Zrotation Yrotation Xrotation
		JOINT LeftLowLeg
		{
			OFFSET 0.000000 -4.342910 0.000000
			CHANNELS 3 Zrotation Yrotation Xrotation
			JOINT LeftFoot
			{
				OFFSET 0.000000 -4.487670 0.000000
				CHANNELS 3 Zrotation Yrotation Xrotation
				JOINT LeftToeBase
				{
					OFFSET 0.000000 0.000000 1.515070
					CHANNELS 3 Zrotation Yrotation Xrotation
					End Site
					{
						OFFSET 0.000000 0.000000 0.000000
					}
				}
			}
		}
	}
	JOINT RightUpLeg
	{
		OFFSET -1.271939 0.000000 0.000000
		CHANNELS 3 Zrotation Yrotation Xrotation
		JOINT RightLowLeg
		{
			OFFSET 0.000000 -4.342910 0.000000
			CHANNELS 3 Zrotation Yrotation Xrotation
			JOINT RightFoot
			{
				OFFSET 0.000000 -4.487670 0.000000
				CHANNELS 3 Zrotation Yrotation Xrotation
				JOINT RightToeBase
				{
					OFFSET 0.000000 0.000000 1.515070
					CHANNELS 3 Zrotation Yrotation Xrotation
					End Site
					{
						OFFSET 0.000000 0.000000 0.000000
					}
				}
			}
		}
	}
}
MOTION
Frames: 13
Frame Time: 0.041667
-17.691758 9.198568 44.913441 -174.220871 6.843533 -170.180852 3.678210 -1.953118 -15.279693 -2.844799 -2.679025 5.368194 0.000000 0.000000 0.000000 15.105725 -9.630221 2.026002 -5.108180 28.437941 -44.892812 -14.788200 6.007720 5.146360 -49.875599 -3.318550 35.744099 0.000000 -20.532200 0.000000 10.188600 11.281600 7.531840 12.389400 -7.012390 -3.635790 -11.487300 46.072899 -68.655403 180.000000 35.755005 -180.000000 -48.808300 18.386299 6.958440 4.626705 4.629731 -7.618415 0.000000 0.000000 7.094710 10.843283 1.519601 4.567510 0.000000 0.000000 -32.485901 5.420234 13.237245 -9.699072 0.000000 0.000000 6.216620 4.228436 -5.876582 12.581132 0.000000 0.000000 -27.547500 
-17.695086 9.198440 44.902321 -174.166354 7.139222 -170.157913 3.516996 -1.952653 -15.378051 -2.648905 -2.604035 5.503991 0.000000 0.000000 0.000000 15.263583 -9.744418 1.911549 -5.245460 28.575332 -44.783986 -14.654300 6.403330 5.021980 -50.759899 -2.435470 35.061699 0.000000 -20.785500 0.000000 10.709600 11.550100 6.429480 12.439800 -7.110740 -3.664870 -11.421400 45.978901 -68.619301 -180.000000 35.761002 -180.000000 -48.979301 18.273199 6.731480 4.621513 4.789412 -7.455941 0.000000 0.000000 7.024190 10.852885 1.662562 4.508802 0.000000 0.000000 -32.456900 5.416198 13.487955 -9.672329 0.000000 0.000000 6.227610 4.164222 -5.885843 12.605850 0.000000 0.000000 -27.577000 
-17.699895 9.198360 44.895529 -174.123554 7.342358 -170.098452 3.340540 -1.979075 -15.397212 -2.388381 -2.553033 5.470737 0.000000 0.000000 0.000000 15.460066 -9.896400 1.990466 -5.607567 28.692729 -44.949530 -14.550200 6.686840 4.829850 -51.473400 -1.431570 34.875801 0.000000 -21.375799 0.000000 11.156300 11.600900 4.561130 12.500500 -7.252520 -3.627850 -11.427900 45.873199 -68.555099 -180.000000 35.794006 -180.000000 -49.098701 18.257700 6.616400 4.600628 4.908335 -7.405820 0.000000 0.000000 6.996890 10.886749 1.771730 4.468941 0.000000 0.000000 -32.472601 5.393249 13.621004 -9.731542 0.000000 0.000000 6.284840 4.152926 -5.830909 12.616263 0.000000 0.000000 -27.515200 
-17.704695 9.198715 44.886201 -174.078336 7.599276 -170.063510 3.149108 -2.026990 -15.733400 -2.085529 -2.496550 6.014210 0.000000 0.000000 0.000000 15.373018 -9.843199 1.816578 -5.308534 28.627612 -44.886375 -14.462800 6.923950 4.476500 -52.091702 -0.532774 34.969398 0.000000 -22.192801 0.000000 11.389600 11.482500 3.151410 12.467500 -7.189470 -3.910470 -11.182500 45.745098 -68.263298 180.000000 35.761993 180.000000 -49.133701 18.277901 6.686150 4.574361 5.119219 -7.264402 0.000000 0.000000 6.892030 10.906264 1.827394 4.439863 0.000000 0.000000 -32.466801 5.355642 13.885020 -9.738311 0.000000 0.000000 6.304200 4.148057 -5.849784 12.633819 0.000000 0.000000 -27.600800 
-17.710813 9.198655 44.880109 -174.045645 7.668899 -170.045089 3.059908 -2.080601 -15.737944 -1.978983 -2.508217 6.005304 0.000000 0.000000 0.000000 15.524311 -9.894985 1.963929 -5.580936 28.768568 -45.105423 -14.315200 7.151930 4.390890 -52.555302 0.262640 35.157299 0.000000 -23.107901 0.000000 11.438900 11.373700 2.214160 12.556400 -7.320870 -3.935200 -11.092200 45.691700 -68.171204 -180.000000 35.740997 -180.000000 -49.138699 18.510500 6.949670 4.560982 5.118966 -7.223604 0.000000 0.000000 6.888440 10.939064 1.906449 4.399940 0.000000 0.000000 -32.448999 5.337232 13.931975 -9.734356 0.000000 0.000000 6.323840 4.182433 -5.815942 12.626639 0.000000 0.000000 -27.550900 
-17.716316 9.198323 44.874337 -174.016195 7.810615 -170.047558 2.960483 -2.118114 -15.766552 -1.852140 -2.497715 6.078627 0.000000 0.000000 0.000000 15.527714 -9.880871 1.954891 -5.418089 28.761014 -45.070609 -14.157000 7.407850 4.436280 -52.992298 0.781481 35.269901 0.000000 -23.999300 0.000000 11.364700 11.286900 1.523810 12.653100 -7.443790 -3.969750 -11.123500 45.724701 -68.064697 -180.000000 35.751007 -180.000000 -49.215000 18.635401 6.986180 4.543719 5.169736 -7.164004 0.000000 0.000000 6.918340 10.949893 1.979307 4.345998 0.000000 0.000000 -32.453501 5.314967 14.058070 -9.721704 0.000000 0.000000 6.359530 4.192385 -5.815674 12.606495 0.000000 0.000000 -27.544200 
-17.722035 9.198163 44.866787 -173.995909 7.949867 -170.092191 2.889733 -2.102694 -15.790809 -1.787606 -2.449658 6.171571 0.000000 0.000000 0.000000 15.645194 -9.941374 2.031519 -5.518038 28.833627 -45.199324 -14.016700 7.533550 4.518120 -53.375999 1.186020 35.292500 0.000000 -24.748400 0.000000 11.202000 11.244600 1.014560 12.734900 -7.614110 -4.001330 -11.156900 45.780201 -68.059700 180.000000 35.712997 -180.000000 -49.310501 18.637899 7.460120 4.509729 5.279276 -7.052267 0.000000 0.000000 6.941820 11.010747 2.029570 4.290897 0.000000 0.000000 -32.468599 5.309612 14.078327 -9.662499 0.000000 0.000000 6.409730 4.183711 -5.737337 12.586346 0.000000 0.000000 -27.553000 
-17.726420 9.198335 44.859765 -173.978535 8.019194 -170.203225 2.801179 -2.123573 -15.774716 -1.719367 -2.427935 6.306594 0.000000 0.000000 0.000000 15.786052 -10.009444 2.096523 -5.637532 28.936668 -45.318565 -13.858300 7.656040 4.549850 -53.758801 1.405780 35.373798 0.000000 -25.250200 0.000000 10.926400 11.197100 0.486578 12.800600 -7.736700 -4.015130 -11.210400 45.805000 -68.032097 180.000000 35.671997 180.000000 -49.399300 18.672199 7.497660 4.505671 5.228860 -6.904230 0.000000 0.000000 6.988430 11.041871 2.138327 4.258071 0.000000 0.000000 -32.428400 5.331395 14.061956 -9.550545 0.000000 0.000000 6.490480 4.145307 -5.686305 12.559373 0.000000 0.000000 -27.565100 
-17.731714 9.198368 44.855327 -173.976379 8.100716 -170.267223 2.699614 -2.087124 -15.733608 -1.626038 -2.347849 6.359500 0.000000 0.000000 0.000000 16.038651 -10.194150 2.194988 -6.018571 29.076072 -45.594674 -13.745700 7.645570 4.578150 -54.091499 1.520590 35.415100 0.000000 -25.543900 0.000000 10.689200 11.134700 0.355773 12.871100 -7.961330 -4.028340 -11.366600 45.849201 -68.022003 -180.000000 35.651993 -180.000000 -49.462200 18.555500 7.432810 4.464886 5.286791 -6.827200 0.000000 0.000000 7.046590 11.134619 2.193859 4.235110 0.000000 0.000000 -32.470600 5.310947 14.044117 -9.491990 0.000000 0.000000 6.537870 4.186509 -5.586812 12.542783 0.000000 0.000000 -27.571700 
-17.737676 9.198031 44.850027 -173.951519 8.121648 -170.310978 2.659981 -2.130148 -15.803005 -1.582237 -2.367669 6.506308 0.000000 0.000000 0.000000 15.967290 -10.217106 2.103348 -5.498435 28.877112 -45.396169 -13.628600 7.664140 4.528180 -54.438202 1.598170 35.293800 0.000000 -25.657700 0.000000 10.592700 11.087200 0.397383 12.861200 -7.978510 -4.099550 -11.345200 45.864201 -67.825401 -180.000000 35.658005 -180.000000 -49.700401 18.707001 7.682640 4.467427 5.051066 -6.767423 0.000000 0.000000 7.097780 11.143735 2.437293 4.216521 0.000000 0.000000 -32.438200 5.289140 14.189798 -9.455668 0.000000 0.000000 6.605300 4.257252 -5.682651 12.494327 0.000000 0.000000 -27.581400 
-17.743516 9.197780 44.844384 -173.932472 8.120794 -170.372058 2.663700 -2.090394 -15.819803 -1.649320 -2.331501 6.558093 0.000000 0.000000 0.000000 16.090343 -10.345132 2.164813 -5.346415 28.830476 -45.393503 -13.518600 7.539590 4.671070 -54.671101 1.474060 35.118401 0.000000 -25.657000 0.000000 10.615400 11.159400 0.373283 12.910000 -8.080880 -4.041660 -11.414800 45.853100 -67.750999 180.000000 35.662994 -180.000000 -49.799500 18.725901 7.430060 4.457062 4.998736 -6.696796 0.000000 0.000000 7.143230 11.187871 2.495514 4.176467 0.000000 0.000000 -32.437599 5.287847 14.203119 -9.393553 0.000000 0.000000 6.669720 4.256507 -5.704509 12.452470 0.000000 0.000000 -27.599100 
-17.749241 9.197938 44.839101 -173.925286 8.134359 -170.444885 2.610749 -2.144088 -15.851389 -1.589606 -2.355937 6.692022 0.000000 0.000000 0.000000 16.214629 -10.428209 2.229357 -5.652239 28.929665 -45.553069 -13.555800 7.582460 4.654670 -54.781898 1.267820 35.140301 0.000000 -25.570200 0.000000 10.868200 11.229600 0.430918 12.917100 -8.006760 -4.058300 -11.485500 45.850899 -67.847801 -180.000000 35.654999 -180.000000 -49.728802 18.673700 7.642970 4.427641 5.023121 -6.614858 0.000000 0.000000 7.185930 11.233604 2.500590 4.148257 0.000000 0.000000 -32.452200 5.282465 14.230861 -9.331361 0.000000 0.000000 6.750940 4.247534 -5.750064 12.405315 0.000000 0.000000 -27.585900 
-17.755712 9.197759 44.834454 -173.919129 8.087101 -170.519694 2.609343 -2.171432 -15.837871 -1.608880 -2.381302 6.712683 0.000000 0.000000 0.000000 16.227585 -10.474613 2.263579 -5.536535 28.857890 -45.497068 -13.559500 7.502800 4.704500 -54.840801 1.025130 35.224499 0.000000 -25.421200 0.000000 11.261900 11.348400 0.244804 12.895600 -8.052930 -3.992370 -11.509200 45.910099 -67.844398 -180.000000 35.645004 -180.000000 -49.835201 18.655899 7.571110 4.408910 4.907656 -6.542741 0.000000 0.000000 7.219400 11.265500 2.567807 4.128853 0.000000 0.000000 -32.438499 5.272558 14.255118 -9.256879 0.000000 0.000000 6.807270 4.233459 -5.842743 12.361927 0.000000 0.000000 -27.594600 
